<svg width="64" height="64" viewBox="0 0 64 64" fill="none" xmlns="http://www.w3.org/2000/svg">
  <defs>
    <linearGradient id="bgGradient" x1="0%" y1="0%" x2="100%" y2="100%">
      <stop offset="0%" style="stop-color:#3B82F6;stop-opacity:1" />
      <stop offset="100%" style="stop-color:#1D4ED8;stop-opacity:1" />
    </linearGradient>
  </defs>
  <circle cx="32" cy="32" r="30" fill="url(#bgGradient)" stroke="#1E40AF" stroke-width="2"/>
  <g transform="translate(32, 38)">
    <path d="M-10 -6 L-10 6 L10 6 L10 4 L-8 4 L-8 1 L8 1 L8 -1 L-8 -1 L-8 -4 L10 -4 L10 -6 Z" fill="#FFFFFF" stroke="#FFFFFF" stroke-width="0.5"/>
    <path d="M12 -6 L12 6 L22 6 L26 4 L26 0 L22 -2 L12 -2 Z M14 -4 L20 -4 L24 -2 L24 2 L20 4 L14 4 Z" fill="#FFFFFF" stroke="#FFFFFF" stroke-width="0.5"/>
  </g>
  <circle cx="18" cy="18" r="2" fill="#FFFFFF" opacity="0.2"/>
  <circle cx="46" cy="14" r="1.5" fill="#FFFFFF" opacity="0.3"/>
</svg>